<?xml version="1.0" encoding="utf-8"?>
<!-- Generator: Adobe Illustrator 24.1.2, SVG Export Plug-In . SVG Version: 6.00 Build 0)  -->
<svg version="1.1" id="Layer_1" xmlns="http://www.w3.org/2000/svg" xmlns:xlink="http://www.w3.org/1999/xlink" x="0px" y="0px"
	 viewBox="0 0 453 165" style="enable-background:new 0 0 453 165;" xml:space="preserve">
<style type="text/css">
	.st0{display:none;}
	.st1{fill-rule:evenodd;clip-rule:evenodd;fill:#0077C8;}
	.st2{fill-rule:evenodd;clip-rule:evenodd;fill:#231F20;stroke:#231F20;stroke-width:0.3741;stroke-miterlimit:3.8637;}
	.st3{fill:#808285;}
	.st4{fill:none;stroke:#0077C8;stroke-width:2.2199;}
</style>
<g id="Background" class="st0">
</g>
<g id="Guides" class="st0">
</g>
<g id="Foreground">
	<path class="st1" d="M5,9.5l48.3,68L22.5,18.9c0,0,33.5,43.3,33.8,43.1c0.1,0-18.9-37-18.9-36.8c0.1-0.1,23.4,27.2,23.4,27.2
		s-9.9-17.2-12.9-22.8h31.9L51.3,94.4L5,9.5z"/>
	<g>
		<g>
			<path class="st2" d="M69.8,83.7c-1.9,4.5-4,7.9-8.8,8.5c-0.8,0.1-2.3,0.2-3,0.2c-0.5,0-0.9,0.2-0.9,0.5c0,0.5,0.6,0.7,2,0.7
				c4.9,0,10.6-0.3,11.8-0.3c1.1,0,5.6,0.3,8.1,0.3c0.9,0,1.6-0.2,1.6-0.7c0-0.4-0.3-0.5-1-0.5h-1c-1.8,0-4-0.8-4-2.6
				c0-1.6,0.5-3.8,1.5-6l6.2-15.9c0.2-0.5,0.5-0.7,1-0.7h22.4c0.5,0,0.7,0.2,0.9,0.5l9.7,22.1c0.6,1.4,0,2.2-0.6,2.4
				c-0.4,0.1-0.7,0.3-0.7,0.6c0,0.5,1.1,0.5,3.1,0.6c7.2,0.2,14.8,0.2,16.4,0.2c1.1,0,2.1-0.2,2.1-0.7c0-0.5-0.4-0.5-1-0.5
				c-1,0-2.6-0.1-4.2-0.5c-2.2-0.5-5.2-2-9-10C115.9,68.2,99.6,31.1,98,27.7c-1.2-2.8-1.7-3.2-2.3-3.2s-1,0.5-2.3,3.5L69.8,83.7z
				 M84.4,63.9c-0.3,0-0.5-0.2-0.3-0.6L93.2,39c0.5-1.4,1-1.4,1.6,0l9.9,24.3c0.1,0.4,0.1,0.6-0.4,0.6H84.4z"/>
			<path class="st2" d="M139.9,61.2c0-10.8,0-12.8,0.2-15c0.2-2.4,0.8-3.6,3.1-4c1-0.1,2.1-0.2,2.6-0.2c0.3,0,0.6-0.1,0.6-0.4
				c0-0.4-0.4-0.5-1.3-0.5c-2.4,0-8.3,0.2-8.7,0.2s-5.5-0.2-9.1-0.2c-0.9,0-1.3,0.1-1.3,0.5c0,0.3,0.3,0.4,0.6,0.4
				c0.7,0,2.1,0.1,2.7,0.2c2.6,0.5,3.3,1.6,3.4,4c0.2,2.2,0.2,4.2,0.2,15v12.2c0,6.6,0,12.1-0.4,15c-0.3,2-0.7,3.5-2.3,3.8
				c-0.7,0.1-1.7,0.3-2.4,0.3c-0.5,0-0.6,0.2-0.6,0.4c0,0.4,0.4,0.5,1.3,0.5c1.2,0,3-0.1,4.6-0.1c1.6,0,3-0.1,3.3-0.1
				c4.7,0,10,0.4,21.5,0.4c4.3,0,4.5-0.3,5.1-1.9c0.6-2,1.2-6.2,1.2-6.9c0-0.8-0.1-1-0.5-1c-0.5,0-0.6,0.3-0.7,0.9
				c-0.2,1.3-1,3-2.1,4.2c-1.9,2-5.5,2.1-9.7,2.1c-6.3,0-8.4-0.5-9.6-1.6c-1.4-1.2-1.8-5.7-1.8-15.9L139.9,61.2L139.9,61.2z"/>
			<path class="st2" d="M196.1,94.5c5.1,0,11.2-0.5,14.5-1.6c1.4-0.5,1.6-0.7,2.1-2c0.8-2.4,1.8-8.4,1.8-8.9c0-0.6-0.2-1-0.6-1
				c-0.5,0-0.6,0.3-0.8,1c-0.2,1.2-1.3,4.3-3,5.8c-3.2,2.8-8,3.5-14,3.5c-17.2,0-29-12.1-29-25.4c0-7.1,1.4-13.2,7.2-18.1
				c2.8-2.4,7.8-5.1,18.5-5.1c7.1,0,13.2,1.9,16.1,4c2.1,1.5,3.4,4.4,3.4,7.1c0,1,0.1,1.5,0.6,1.5c0.5,0,0.6-0.4,0.7-1.5
				s0.1-4.9,0.2-7.1c0.2-2.5,0.4-3.3,0.4-3.9c0-0.4-0.2-0.7-1-0.8c-2.6-0.1-5.1-0.5-8.2-1c-3.9-0.6-8.4-0.8-11.6-0.8
				c-12.4,0-19.7,3.3-24.5,7.4c-7.1,6.2-9,14.3-9,18.9c0,6.6,1.9,14.5,9.7,20.5C176,92,184.1,94.5,196.1,94.5z"/>
			<path class="st2" d="M214.9,67.3c0,12.5,9.1,27.2,31.2,27.2c19.4,0,32-12.8,32-28.3c0-16.1-13.5-26-31.6-26
				C224.4,40.2,214.9,56.1,214.9,67.3z M222.5,65.3c0-15.2,10-22.8,23.5-22.8c12.7,0,24.4,8.9,24.4,25.6c0,20.2-14.9,23.8-22.2,23.8
				C233.8,91.9,222.5,81.5,222.5,65.3z"/>
			<path class="st2" d="M286.2,50.9c2.6,2.5,11.6,11.2,21,19.9c8.5,7.9,20.1,18.1,21,18.8c4.3,3.7,5.2,4.4,5.9,4.4
				c0.6,0,0.7-0.4,0.7-4.9l0.2-40.6c0-4.2,0.3-5.7,3-6.2c1-0.2,1.5-0.2,1.9-0.2c0.6,0,0.9-0.2,0.9-0.5c0-0.4-0.6-0.5-1.5-0.5
				c-3.3,0-5.9,0.2-6.8,0.2s-4.7-0.2-8.4-0.2c-1,0-1.6,0.1-1.6,0.5c0,0.3,0.1,0.5,0.6,0.5c0.6,0,2.5,0.1,3.9,0.4
				c2.5,0.5,3,2.1,3.1,6.6l0.9,35.2c-2.6-2.3-11.3-10.7-19.3-18.1c-12.4-11.4-24.3-22.6-25.5-23.8c-0.8-0.7-2.2-2.2-2.8-2.2
				c-0.6,0-0.9,0.8-0.9,3.5l-0.1,39.7c0,6.3-0.4,8.3-2.4,8.8c-1.2,0.4-2.6,0.4-3.3,0.4c-0.4,0-0.6,0.1-0.6,0.4
				c0,0.5,0.5,0.5,1.3,0.5c3.6,0,7-0.2,7.7-0.2s3.9,0.2,8.5,0.2c1,0,1.5-0.1,1.5-0.5c0-0.3-0.2-0.4-0.6-0.4c-0.7,0-2.5-0.1-4-0.4
				c-2.2-0.6-3-2.4-3.1-8L286.2,50.9z"/>
			<path class="st2" d="M339.1,67.3c0,12.5,9.2,27.2,31.2,27.2c19.4,0,32-12.8,32-28.3c0-16.1-13.5-26-31.5-26
				C348.6,40.2,339.1,56.1,339.1,67.3z M346.7,65.3c0-15.2,10-22.8,23.5-22.8c12.7,0,24.4,8.9,24.4,25.6c0,20.2-14.9,23.8-22.2,23.8
				C358,91.9,346.7,81.5,346.7,65.3z"/>
			<path class="st2" d="M403.2,86.6c-2.6,3.5-4.3,5.1-6.7,5.6c-1.2,0.3-2.4,0.4-3,0.4c-0.4,0-0.6,0.2-0.6,0.5c0,0.3,0.2,0.5,0.8,0.5
				c2.6,0,6.6-0.2,7.3-0.2s5.8,0.2,7.7,0.2c0.6,0,1-0.1,1-0.5c0-0.3-0.2-0.5-0.6-0.5c-0.4,0-1-0.1-1.5-0.1c-0.7-0.1-1.3-0.6-1.3-1.3
				c0-0.7,0.3-1.9,1-3l12.5-18.4c4.8,7,9.5,13.9,13.8,20.6c0.7,1.1,0,1.8-0.4,1.9c-0.3,0.1-0.5,0.3-0.5,0.6c0,0.4,0.4,0.4,2.5,0.5
				c4.1,0.1,8,0.1,12.8,0.1c0.7,0,1.1-0.2,1.1-0.5c0-0.3-0.2-0.4-0.6-0.4c-0.5,0-1.7-0.1-2.8-0.4c-2.3-0.6-3.5-1.7-4.7-3.1
				c-1.7-1.9-15.4-22-16.9-24.2l12.9-16.8c2.3-3,3.9-5,6.2-5.6c0.9-0.3,2.1-0.4,2.7-0.4s0.9-0.2,0.9-0.5s-0.4-0.5-1.3-0.5
				c-2.7,0-6,0.2-6.7,0.2s-4.1-0.2-7.1-0.2c-1,0-1.4,0.2-1.4,0.5c0,0.4,0.2,0.5,0.7,0.5c0.5,0,1.6,0,2.4,0.2
				c0.8,0.2,1.4,0.8,1.4,1.2c0,0.8-0.2,1.5-0.8,2.5c-0.8,1.5-9.4,13.3-11.8,16.3c-4.2-6-7.5-11.1-10.8-16.6
				c-0.5-0.8-0.8-1.6-0.8-2.3c0-0.5,0.2-1,1-1.2c0.6-0.2,1.7-0.2,2.2-0.2c0.5,0,0.7-0.1,0.7-0.5c0-0.4-0.2-0.5-1.4-0.5
				c-2.7,0-6.8,0.2-7.5,0.2c-0.6,0-7.1-0.2-9.4-0.2c-1,0-1.4,0.1-1.4,0.5c0,0.3,0.2,0.5,0.7,0.5s2.1,0.1,3.4,0.5
				c2.7,0.8,4.4,2.8,6.3,5.5l12.9,18.6L403.2,86.6z"/>
		</g>
		<path class="st1" d="M5,9.5l48.3,68L22.5,18.9c0,0,33.5,43.3,33.8,43.1c0.1,0-18.9-37-18.9-36.8c0.1-0.1,23.4,27.2,23.4,27.2
			s-9.9-17.2-12.9-22.8h31.9L51.3,94.4L5,9.5z"/>
	</g>
	<g>
		<path class="st3" d="M81,143v0.6c0,4.9-2,9.7-8.4,9.7c-6.8,0-9-4.4-9-14.1s2.1-14.1,9-14.1c7.7,0,8.2,5.7,8.2,8.5v0.5h-4.3v-0.5
			c0-2.5-0.8-5.4-3.9-5.3c-3.2,0-4.6,2-4.6,10.7s1.4,11,4.6,11c3.6,0,4-4,4-6.5V143L81,143L81,143z"/>
		<path class="st3" d="M84.9,132.3H89v3.2h0.1c0.9-2.3,2.4-3.7,4.8-3.7c0.5,0,0.7,0.1,1,0.1v4.2c-0.3-0.1-1-0.2-1.7-0.2
			c-1.9,0-4.1,0.8-4.1,4.6v12.2h-4.1L84.9,132.3L84.9,132.3z"/>
		<path class="st3" d="M98.2,125.3h4.1v4.1h-4.1V125.3z M98.2,132.3h4.1v20.5h-4.1V132.3z"/>
		<path class="st3" d="M105.8,132.3h2.8v-5.8h4.1v5.8h3.3v3h-3.3v12.2c0,1.6,0.5,2.2,1.9,2.2c0.6,0,1.1,0,1.5-0.1v3
			c-0.9,0.2-2,0.3-3.3,0.3c-2.8,0-4.1-0.8-4.1-4.9v-12.7h-2.8L105.8,132.3L105.8,132.3z"/>
		<path class="st3" d="M119.5,125.3h4.1v4.1h-4.1V125.3z M119.5,132.3h4.1v20.5h-4.1V132.3z"/>
		<path class="st3" d="M142.7,145.3c-0.3,4.9-1.9,8-7,8c-5.9,0-7.6-4.4-7.6-10.8s1.7-10.8,7.6-10.8c6.1-0.1,7,4.8,7,7.3h-4.1
			c0-1.9-0.5-4.4-2.9-4.3c-3,0-3.5,3.2-3.5,7.7c0,4.5,0.5,7.7,3.5,7.7c2.3,0,3.1-1.9,3.1-4.9H142.7z"/>
		<path class="st3" d="M160.3,148.5c0,0.8,0.5,1.4,1.1,1.4c0.3,0,0.5,0,0.7-0.1v2.7c-0.5,0.2-1.2,0.5-2,0.5c-1.8,0-3.3-0.7-3.5-2.7
			h-0.1c-1.1,2-2.7,3-5.1,3c-3.3,0-5.3-1.8-5.3-5.7c0-4.6,2-5.5,4.8-6.4l3.2-0.9c1.5-0.4,2.4-0.8,2.4-2.6c0-1.9-0.6-3-2.8-3
			c-2.7,0-3.1,1.9-3.1,3.9h-3.9c0-4.3,1.8-6.7,7.2-6.7c3.6,0,6.5,1.4,6.5,5L160.3,148.5L160.3,148.5z M156.4,142
			c-1.1,0.8-3.4,1.3-4.6,1.9c-1.2,0.6-1.7,1.8-1.7,3.3c0,1.7,0.8,3.1,2.6,3.1c2.5,0,3.7-1.9,3.7-4.9L156.4,142L156.4,142z"/>
		<path class="st3" d="M165.8,125.6h4.1v27.1h-4.1V125.6z"/>
		<path class="st3" d="M202.4,143v0.6c0,4.9-2,9.7-8.4,9.7c-6.8,0-9-4.4-9-14.1s2.1-14.1,9-14.1c7.7,0,8.2,5.7,8.2,8.5v0.5H198v-0.5
			c0-2.5-0.8-5.4-3.9-5.3c-3.2,0-4.6,2-4.6,10.7s1.4,11,4.6,11c3.6,0,4-4,4-6.5V143L202.4,143L202.4,143z"/>
		<path class="st3" d="M206.5,125.6h4.1v27.1h-4.1V125.6z"/>
		<path class="st3" d="M219.4,143.1v1.2c0,2.7,0.3,6.2,3.4,6.2c2.9,0,3.3-3.3,3.3-4.6h3.9c0,4.5-2.7,7.4-7.2,7.4
			c-3.3,0-7.5-1-7.5-10.5c0-5.4,1.1-11.1,7.6-11.1c5.7,0,7.2,3.4,7.2,9.1v2.2H219.4z M226,140.2v-1.1c0-2.6-0.8-4.6-3.1-4.6
			c-2.6,0-3.4,2.6-3.4,5.2v0.4L226,140.2L226,140.2z"/>
		<path class="st3" d="M248,148.5c0,0.8,0.5,1.4,1.1,1.4c0.3,0,0.5,0,0.7-0.1v2.7c-0.5,0.2-1.2,0.5-2,0.5c-1.8,0-3.3-0.7-3.5-2.7
			h-0.1c-1.1,2-2.7,3-5.1,3c-3.3,0-5.3-1.8-5.3-5.7c0-4.6,2-5.5,4.8-6.4l3.2-0.9c1.5-0.4,2.4-0.8,2.4-2.6c0-1.9-0.6-3-2.8-3
			c-2.7,0-3.1,1.9-3.1,3.9h-3.9c0-4.3,1.8-6.7,7.2-6.7c3.6,0,6.5,1.4,6.5,5L248,148.5L248,148.5z M244.2,142
			c-1.1,0.8-3.4,1.3-4.6,1.9c-1.2,0.6-1.7,1.8-1.7,3.3c0,1.7,0.8,3.1,2.5,3.1c2.5,0,3.7-1.9,3.7-4.9L244.2,142L244.2,142z"/>
		<path class="st3" d="M253.3,132.3h3.9v2.4h0.1c1-1.8,3-2.9,5.2-2.9c3.1,0,5.1,1.4,5.1,5.5v15.4h-4.1v-14c0-2.7-0.8-3.7-2.9-3.7
			c-1.7,0-3.3,1.3-3.3,4v13.7h-4.1V132.3z"/>
		<path class="st3" d="M272.9,125.3h4.1v4.1h-4.1V125.3z M272.9,132.3h4.1v20.5h-4.1V132.3z"/>
		<path class="st3" d="M282.3,132.3h3.9v2.4h0.1c1-1.8,3-2.9,5.2-2.9c3.1,0,5.1,1.4,5.1,5.5v15.4h-4.1v-14c0-2.7-0.8-3.7-2.9-3.7
			c-1.7,0-3.3,1.3-3.3,4v13.7h-4.1L282.3,132.3L282.3,132.3z"/>
		<path class="st3" d="M305.9,154.5c0,1.2,1.1,2.4,3,2.4c2.1,0,3.5-1.5,3.5-3.8v-3.3h-0.1c-0.8,1.8-2.7,2.8-4.6,2.8
			c-4.8,0-6.1-4.7-6.1-10.3c0-4.5,0.7-10.5,6.5-10.5c2.4,0,4.1,1.6,4.5,3h0.1v-2.5h3.9v19.5c0,5-2.1,8-7.6,8c-6.1,0-6.8-3.6-6.8-5.2
			L305.9,154.5L305.9,154.5z M308.7,149.3c3.2,0,3.5-4,3.5-7.3c0-3.3-0.4-7-3.3-7c-3,0-3.5,3-3.5,6.8
			C305.5,145.4,305.7,149.3,308.7,149.3z"/>
		<path class="st3" d="M331.7,125.6h14.7v3.6H336v7.5h9.7v3.6H336v8.7h10.6v3.6h-15L331.7,125.6L331.7,125.6z"/>
		<path class="st3" d="M354.6,142.2l-5.3-9.8h4.5l3.2,6.8l3.3-6.8h4.4l-5.3,9.8l5.5,10.6h-4.5l-3.6-7.6l-3.6,7.6H349L354.6,142.2z"
			/>
		<path class="st3" d="M368.2,132.3h3.9v2.5h0.1c0.8-1.8,2.4-3,4.6-3c4.7,0,6.6,4,6.6,11c0,8.6-3.5,10.5-6.3,10.5
			c-2.2,0-3.9-1.1-4.6-2.9h-0.1v9.1h-4.1L368.2,132.3L368.2,132.3z M375.5,150c2.4,0,3.4-1.8,3.4-7.4c0-4.6-0.6-7.6-3.5-7.6
			c-2.8,0-3.5,2.9-3.5,7.3C372.1,147.2,372.7,150,375.5,150z"/>
		<path class="st3" d="M391.1,143.1v1.2c0,2.7,0.3,6.2,3.4,6.2c2.9,0,3.3-3.3,3.3-4.6h3.9c0,4.5-2.7,7.4-7.2,7.4
			c-3.3,0-7.5-1-7.5-10.5c0-5.4,1.1-11.1,7.6-11.1c5.7,0,7.2,3.4,7.2,9.1v2.2H391.1z M397.7,140.2v-1.1c0-2.6-0.8-4.6-3.1-4.6
			c-2.6,0-3.4,2.6-3.4,5.2v0.4L397.7,140.2L397.7,140.2z"/>
		<path class="st3" d="M406.3,132.3h4.1v3.2h0.1c0.9-2.3,2.4-3.7,4.8-3.7c0.5,0,0.7,0.1,1,0.1v4.2c-0.3-0.1-1-0.2-1.7-0.2
			c-1.9,0-4.1,0.8-4.1,4.6v12.2h-4.1V132.3z"/>
		<path class="st3" d="M417.6,132.3h2.8v-5.8h4.1v5.8h3.4v3h-3.4v12.2c0,1.6,0.5,2.2,1.9,2.2c0.6,0,1.1,0,1.5-0.1v3
			c-0.9,0.2-2,0.3-3.3,0.3c-2.8,0-4.1-0.8-4.1-4.9v-12.7h-2.8L417.6,132.3L417.6,132.3z"/>
		<path class="st3" d="M439.9,138.3v-0.5c0-1.6-0.6-3.2-2.7-3.2c-1.6,0-2.9,0.8-2.9,2.7c0,1.6,0.7,2.2,2.9,3l2.6,0.9
			c3,1,4.4,2.7,4.4,5.9c0,4.4-3.2,6.2-7.3,6.2c-5.2,0-6.7-2.4-6.7-6.4v-0.8h3.6v0.6c0,2.4,0.8,3.6,3.2,3.6c2.2,0,3.3-1.1,3.3-3
			c0-1.5-0.8-2.5-2.2-3l-3.3-1.2c-3.1-1.1-4.4-2.6-4.4-5.9c0-3.8,2.8-5.6,7-5.6c5.2,0,6.4,3,6.4,5.6v0.9L439.9,138.3L439.9,138.3z"
			/>
	</g>
	<line class="st4" x1="64" y1="111.7" x2="444.1" y2="111.7"/>
</g>
</svg>
